# xmcd
#
# Track frame offsets:
#	150
#	14525
#	35050
#	49250
#	65025
#	78675
#	93375
#	106112
#	122237
#	139500
#	157475
#	172887
#	185825
#
# Disc length: 2686 seconds
#
# Revision: 1
# Processed by: cddbd v1.5.2PL0 Copyright (c) Steve Scherf et al.
# Submitted via: audiograbber 1.83.01
#
DISCID=bd0a7c0d
DTITLE=Brendan Dugan - All This Time
DYEAR=1992
DGENRE=Country
TTITLE0=Memory County Jail
TTITLE1=I Sure Can Smell The Rain
TTITLE2=Ace Of Hearts
TTITLE3=Tighten Up The Bible Belt
TTITLE4=All This Time
TTITLE5=Brothers In Arms
TTITLE6=We Gotta Go On Meeting Like This
TTITLE7=Daddy Was A Boxer
TTITLE8=Once In A Lifetime Lady
TTITLE9=Honky Tonk Heroes
TTITLE10=Next To You
TTITLE11=Here Comes The Rain Again
TTITLE12=Sweet Little Angel
EXTD=
EXTT0=
EXTT1=
EXTT2=
EXTT3=
EXTT4=
EXTT5=
EXTT6=
EXTT7=
EXTT8=
EXTT9=
EXTT10=
EXTT11=
EXTT12=
PLAYORDER=
